<svg width="948" height="1249" viewBox="0 0 948 1249" fill="none" xmlns="http://www.w3.org/2000/svg">
<path d="M294.87 589.043C129.122 589.043 0.394531 455.267 0.394531 294.567C0.394531 129.661 134.171 0.0917969 294.87 0.0917969C414.343 0.0917969 521.196 73.29 566.629 180.143L502.686 206.225C460.618 118.723 384.895 69.0832 294.87 69.0832C170.349 69.0832 69.3859 170.046 69.3859 294.567C69.3859 418.247 169.508 520.052 294.87 520.052C385.737 520.052 461.459 468.729 502.686 382.91L566.629 408.992C520.354 517.527 412.66 589.043 294.87 589.043Z" fill="white"/>
<path d="M889.766 918.413L542.735 554.635H777.2H787.836L781.05 546.445L541.69 257.529H942.387V302.526L657.522 302.526H646.91L653.667 310.71L893.055 600.625L674.525 600.625H663.296L670.809 608.971L921.03 886.89L889.766 918.413Z" fill="white" stroke="white" stroke-width="10"/>
<path d="M283.512 1249.01V660.055H527.506L699.984 832.533V1076.53L527.506 1249.01H283.512ZM352.503 1180.01H498.9L630.152 1047.92V861.139L498.9 729.046H352.503V1180.01Z" fill="white"/>
</svg>
