<svg width="1052" height="1250" viewBox="0 0 1052 1250" fill="none" xmlns="http://www.w3.org/2000/svg">
<path d="M295.315 589.438C129.568 589.438 0.839844 455.661 0.839844 294.962C0.839844 130.056 134.616 0.486328 295.315 0.486328C414.788 0.486328 521.641 73.6846 567.074 180.537L503.131 206.619C461.063 119.118 385.341 69.4778 295.315 69.4778C170.794 69.4778 69.8313 170.441 69.8313 294.962C69.8313 418.642 169.953 520.446 295.315 520.446C386.182 520.446 461.904 469.123 503.131 383.305L567.074 409.387C520.8 517.922 413.106 589.438 295.315 589.438Z" fill="black"/>
<path d="M995.116 947.755L655.059 591.288H884.737H895.373L888.588 583.098L654.014 299.961H1046.61V343.888L767.387 343.888L756.774 343.888L763.532 352.072L998.133 636.19H784.059H772.83L780.344 644.535L1025.64 916.982L995.116 947.755Z" fill="black" stroke="black" stroke-width="10"/>
<path d="M283.957 1249.4V660.449H527.951L700.43 832.928V1076.92L527.951 1249.4H283.957ZM352.948 1180.41H499.345L630.597 1048.32V861.534L499.345 729.441H352.948V1180.41Z" fill="black"/>
</svg>
